<?xml version="1.0" standalone="no"?>
<!DOCTYPE svg PUBLIC "-//W3C//DTD SVG 20010904//EN"
 "http://www.w3.org/TR/2001/REC-SVG-20010904/DTD/svg10.dtd">
<svg version="1.0" xmlns="http://www.w3.org/2000/svg"
 width="744.000000pt" height="744.000000pt" viewBox="0 0 744.000000 744.000000"
 preserveAspectRatio="xMidYMid meet">
<metadata>
Created by potrace 1.14, written by Peter Selinger 2001-2017
</metadata>
<g transform="translate(0.000000,744.000000) scale(0.100000,-0.100000)"
fill="#000000" stroke="none">
<path d="M3478 7115 c-2 -2 -30 -6 -63 -9 -405 -35 -820 -174 -1193 -398 -83
-50 -83 -50 -65 -71 43 -52 83 -74 83 -47 0 6 5 10 10 10 6 0 27 11 48 24 79
50 251 136 357 179 106 44 276 103 319 111 12 3 62 14 111 26 50 12 101 24
115 25 14 2 41 7 60 10 118 22 218 29 425 29 181 0 259 -4 365 -19 19 -3 51
-7 70 -10 19 -3 46 -7 60 -10 14 -3 36 -7 50 -10 269 -52 612 -185 840 -327
25 -15 60 -35 77 -45 l33 -17 35 37 c19 20 35 38 35 41 0 16 -310 188 -450
249 -49 22 -202 79 -220 82 -8 2 -16 4 -17 5 -2 2 -6 3 -10 4 -5 1 -39 12 -78
23 -60 18 -96 28 -140 39 -58 14 -224 44 -275 49 -36 4 -74 10 -85 12 -24 6
-491 13 -497 8z"/>
<path d="M1746 6803 c-30 -62 -83 -196 -91 -233 -2 -8 -12 -51 -23 -95 -18
-71 -25 -104 -46 -229 -18 -105 -26 -202 -26 -331 0 -118 12 -244 26 -266 7
-11 -9 -17 -66 -23 -67 -7 -363 -64 -455 -88 -44 -11 -89 -22 -100 -23 -11 -1
-20 -3 -20 -4 0 -2 -8 -4 -18 -6 -50 -9 -117 -30 -117 -35 0 -6 58 -89 70
-100 3 -3 23 -25 44 -50 36 -41 136 -150 273 -298 29 -32 53 -60 53 -64 0 -7
-111 -61 -210 -103 -32 -13 -101 -45 -155 -70 -53 -25 -99 -45 -101 -45 -2 0
-34 -14 -71 -31 -38 -17 -108 -49 -158 -71 -49 -23 -128 -58 -173 -79 -46 -22
-88 -39 -93 -39 -5 0 -9 -4 -9 -10 0 -5 4 -10 9 -10 5 0 38 -13 73 -29 35 -16
117 -52 183 -81 66 -29 134 -58 150 -66 17 -7 154 -67 305 -134 151 -67 293
-129 315 -139 22 -10 65 -29 95 -42 30 -12 62 -27 71 -33 13 -9 -45 -56 -322
-266 -186 -140 -350 -264 -366 -275 -49 -35 -428 -320 -433 -325 -3 -3 -79
-61 -170 -129 -91 -68 -169 -128 -175 -133 -9 -9 32 -7 185 8 30 3 66 7 80 9
14 2 63 7 110 10 47 3 96 8 110 10 14 2 57 6 95 10 39 3 88 8 110 10 22 3 63
7 90 10 28 3 79 8 115 10 36 3 81 7 100 10 51 6 199 21 300 30 137 12 188 17
210 20 14 2 57 6 95 10 39 4 89 9 113 11 l43 4 -28 -37 c-15 -21 -36 -47 -45
-58 -9 -11 -67 -83 -128 -160 -62 -77 -119 -149 -129 -160 -33 -40 -111 -144
-111 -148 0 -2 35 4 78 15 93 23 238 57 272 64 14 3 61 14 105 24 88 21 212
50 235 55 8 2 47 11 85 20 39 9 84 19 100 21 17 3 35 7 41 9 9 3 -27 -91 -217
-557 -21 -53 -39 -101 -39 -106 0 -9 80 24 290 120 25 11 187 83 360 160 173
77 331 148 351 158 19 10 40 15 45 12 9 -7 19 -37 109 -327 25 -82 50 -161 55
-175 5 -14 18 -59 30 -100 32 -108 82 -209 125 -252 36 -36 97 -63 168 -76 41
-7 312 -7 352 0 46 8 119 31 131 41 84 67 112 120 178 332 26 83 51 161 56
175 5 14 32 102 61 195 28 94 55 175 60 181 7 9 72 -16 232 -88 122 -55 258
-116 302 -135 44 -19 98 -42 120 -53 61 -29 357 -161 382 -171 l22 -8 -20 52
c-40 102 -150 372 -164 402 -27 60 -87 217 -83 219 1 2 57 -10 123 -25 66 -16
131 -31 145 -34 14 -2 93 -20 175 -40 83 -20 161 -38 175 -41 14 -3 41 -9 60
-14 19 -5 47 -11 63 -14 15 -3 35 -7 45 -10 9 -3 28 -7 42 -10 14 -3 42 -10
62 -15 l38 -9 -48 61 c-26 34 -51 67 -57 73 -5 6 -23 28 -40 49 -16 22 -66 84
-110 139 -44 56 -107 134 -138 174 l-59 73 59 -6 c32 -4 72 -8 88 -10 104 -9
175 -16 205 -20 19 -3 64 -7 100 -9 61 -4 129 -11 225 -22 22 -2 65 -6 95 -9
86 -8 151 -14 195 -19 53 -6 211 -22 320 -31 22 -2 65 -6 95 -9 30 -3 82 -8
115 -12 33 -3 76 -7 95 -9 19 -2 67 -7 105 -10 l70 -7 -35 31 c-19 17 -38 31
-41 31 -3 0 -17 9 -30 20 -13 11 -28 23 -34 28 -5 4 -46 35 -90 67 -44 33 -82
62 -85 65 -3 3 -104 79 -225 170 -121 90 -227 170 -235 177 -66 53 -162 123
-169 123 -5 0 -11 4 -13 8 -1 5 -121 97 -265 206 -145 108 -263 200 -263 204
0 4 62 34 138 67 75 32 174 76 219 97 46 21 85 38 87 38 3 0 29 11 58 24 79
36 490 217 513 226 11 4 45 19 75 32 30 14 69 31 87 39 24 10 29 16 21 26 -6
7 -14 13 -18 13 -5 0 -46 17 -92 39 -45 21 -121 55 -168 76 -176 78 -568 255
-636 287 -24 11 -44 23 -44 27 0 3 24 31 53 62 45 48 184 199 254 275 13 14
48 56 79 94 46 57 54 73 45 84 -7 8 -20 14 -29 14 -9 0 -71 14 -137 31 -66 17
-135 34 -154 37 -19 2 -38 7 -43 10 -5 3 -22 7 -39 9 -16 2 -56 9 -87 15 -31
6 -70 13 -87 16 -16 3 -52 9 -78 14 -26 6 -62 10 -79 10 l-31 0 8 53 c25 178
21 393 -10 567 -3 14 -7 43 -11 65 -23 160 -113 440 -172 532 -13 22 -15 22
-45 6 -29 -14 -61 -37 -137 -98 -67 -54 -328 -328 -338 -356 -6 -15 -17 -11
-47 17 -16 15 -49 41 -74 59 l-45 33 -75 -33 c-145 -61 -423 -149 -510 -160
-17 -2 -54 -8 -83 -14 -224 -46 -861 -49 -1123 -6 -16 3 -47 8 -69 11 -21 3
-90 19 -155 36 -64 16 -121 30 -128 32 -7 1 -16 5 -19 9 -4 4 -13 7 -21 7 -7
0 -80 26 -162 58 l-148 58 -33 -23 c-19 -12 -52 -40 -73 -60 l-40 -37 -55 64
c-149 173 -422 420 -463 420 -5 0 -24 -30 -43 -67z m145 -85 c71 -60 219 -205
284 -279 25 -27 123 -152 162 -204 58 -78 154 -237 194 -322 14 -32 29 -51 37
-48 38 14 177 36 242 38 111 4 173 -5 370 -58 8 -2 60 -18 115 -34 55 -17 116
-34 135 -37 19 -3 42 -9 50 -13 22 -11 89 -15 220 -15 172 0 207 7 442 78 124
37 229 64 290 72 92 13 268 5 320 -15 14 -5 38 -11 55 -14 29 -5 32 -1 54 46
23 49 150 267 170 291 5 6 33 43 61 81 29 39 57 75 63 81 5 6 29 34 53 62 112
132 363 364 379 349 5 -5 -37 -70 -57 -87 -14 -12 -114 -155 -182 -260 -92
-142 -169 -275 -308 -535 -133 -249 -172 -292 -201 -226 -27 61 -32 9 -9 -87
13 -53 45 -118 99 -199 101 -152 131 -253 111 -365 -4 -21 -5 -38 -1 -38 3 0
21 16 40 35 44 44 126 87 231 120 47 15 98 34 115 43 38 19 97 80 90 93 -4 5
-11 7 -16 3 -5 -3 -47 -5 -92 -5 -82 1 -149 15 -220 45 l-38 16 31 33 c16 17
30 35 30 39 0 4 6 13 13 20 20 19 95 178 103 216 12 59 28 -27 21 -116 l-5
-66 18 34 c9 19 21 53 25 75 5 22 9 45 10 50 2 6 8 37 16 70 7 33 11 67 10 75
-2 12 0 12 9 3 8 -7 13 -49 14 -116 1 -85 3 -101 13 -87 7 9 14 29 17 43 2 15
7 30 10 35 3 5 8 34 11 66 4 31 8 66 10 77 2 11 5 45 6 75 1 30 6 57 10 59 8
5 31 -106 35 -170 4 -60 5 -62 15 -37 17 45 30 142 30 232 0 47 1 51 10 30 6
-14 11 -46 12 -72 2 -59 12 -49 37 38 36 126 48 206 49 338 1 89 8 109 16 45
3 -19 7 -50 10 -69 14 -91 21 -375 11 -440 -2 -14 -7 -46 -10 -71 -4 -25 -9
-59 -12 -75 -8 -50 -45 -167 -66 -207 -11 -22 -18 -41 -16 -43 2 -2 56 30 119
72 97 64 118 74 144 69 17 -4 39 -8 50 -10 11 -2 54 -11 95 -20 41 -9 86 -18
100 -21 14 -3 33 -7 42 -10 10 -3 29 -7 43 -10 52 -9 72 -13 133 -27 34 -9 62
-13 62 -11 0 3 5 2 12 -2 10 -6 -67 -34 -137 -48 -174 -37 -287 -62 -365 -82
-137 -35 -292 -94 -307 -117 -6 -10 75 -87 139 -133 70 -50 156 -99 278 -157
168 -81 194 -92 388 -170 31 -13 73 -31 92 -39 19 -9 73 -33 120 -53 163 -71
291 -140 225 -121 -11 3 -45 8 -75 11 -30 3 -77 8 -105 11 -27 3 -66 7 -85 9
-19 2 -57 6 -85 9 -27 3 -86 8 -130 12 -44 3 -88 8 -98 10 -106 19 -755 19
-937 0 -25 -3 -76 -8 -115 -11 -83 -8 -127 -13 -175 -20 -19 -3 -48 -8 -65
-10 -40 -6 -86 -15 -107 -21 -9 -3 -25 -7 -36 -9 -10 -2 -52 -13 -93 -25 -257
-77 -405 -220 -435 -420 -7 -53 -7 -194 1 -219 9 -30 -429 -195 -575 -217 -30
-4 -57 -7 -60 -7 -3 1 -25 4 -50 6 -103 12 -198 42 -435 136 -96 39 -152 66
-155 77 -4 10 -4 35 0 55 12 67 1 185 -24 256 -62 176 -228 293 -508 359 -41
9 -64 14 -88 19 -14 3 -34 7 -45 9 -11 2 -42 7 -70 10 -27 4 -61 9 -75 11 -14
2 -56 7 -95 10 -38 3 -92 8 -120 10 -223 21 -716 21 -950 -1 -27 -2 -72 -6
-100 -9 -27 -3 -77 -7 -110 -10 -62 -5 -111 -10 -180 -20 -22 -2 -69 -8 -105
-11 -36 -3 -68 -8 -72 -10 -5 -3 -8 -1 -8 4 0 13 187 100 465 217 245 103 477
209 505 231 8 6 29 19 45 28 69 38 119 75 192 141 l55 51 -55 27 c-87 43 -267
98 -397 122 -43 8 -242 54 -303 70 -32 8 -61 15 -64 15 -10 0 7 14 20 16 15 3
93 20 127 28 14 3 41 9 60 12 19 3 60 12 90 19 30 8 66 16 80 19 14 2 62 12
106 21 l82 16 113 -75 c63 -41 115 -73 116 -72 2 2 -5 23 -16 47 -39 93 -35
80 -64 219 -22 103 -24 136 -22 325 2 116 6 221 9 235 3 14 9 45 12 70 9 64
14 62 15 -6 1 -90 11 -196 24 -261 25 -120 65 -227 61 -165 -1 29 14 105 20
99 4 -3 7 -43 9 -89 3 -84 21 -184 34 -192 4 -3 7 9 6 27 0 18 5 64 13 102 8
39 14 76 15 83 1 27 17 10 18 -20 3 -65 8 -143 9 -143 1 0 3 -12 5 -28 8 -63
27 -137 36 -143 5 -3 7 -10 4 -15 -4 -5 -2 -9 3 -9 6 0 12 7 16 15 3 8 2 15
-2 15 -8 0 -5 132 5 170 5 20 8 14 19 -35 8 -33 16 -71 18 -85 12 -66 34 -140
46 -153 4 -5 7 24 6 65 -1 40 1 84 4 98 5 22 8 19 24 -25 34 -91 87 -190 126
-236 l39 -47 -34 -16 c-69 -33 -127 -44 -226 -44 -56 0 -103 -2 -105 -5 -3 -2
12 -21 33 -42 41 -41 79 -60 193 -95 94 -30 161 -66 211 -115 21 -21 39 -34
40 -29 1 12 -1 54 -5 79 -5 33 21 151 43 194 12 22 45 78 75 123 81 126 102
179 110 283 l5 50 -20 -37 c-40 -78 -62 -52 -244 287 -86 160 -180 324 -221
388 -24 37 -44 71 -44 75 0 5 -8 17 -19 28 -10 11 -23 30 -29 41 -7 11 -54 78
-107 147 -52 70 -95 129 -95 132 0 13 24 -2 91 -58z m-42 -2644 c379 -132 628
-216 639 -217 7 0 9 -4 5 -8 -6 -6 -264 -110 -283 -115 -3 0 -16 -5 -30 -11
-14 -6 -90 -36 -170 -67 -80 -31 -154 -60 -165 -65 -22 -10 -461 -183 -670
-263 -71 -28 -144 -56 -161 -64 -16 -7 -93 -37 -170 -67 -345 -134 -511 -200
-542 -214 -19 -8 -35 -13 -37 -11 -2 2 59 51 136 108 78 58 153 115 167 126
15 12 115 87 222 168 107 80 204 153 215 161 32 25 51 40 410 309 186 141 344
256 349 256 5 0 44 -12 85 -26z m4002 -150 c129 -96 245 -183 257 -192 13 -9
38 -29 55 -44 18 -15 35 -28 39 -28 4 0 13 -6 20 -13 12 -11 199 -153 543
-412 66 -49 125 -94 131 -100 6 -6 36 -28 67 -49 32 -22 57 -43 57 -48 0 -4 7
-8 15 -8 8 0 15 -4 15 -8 0 -4 14 -16 31 -26 39 -23 31 -32 -13 -13 -18 9 -76
32 -128 52 -52 19 -104 40 -115 44 -11 5 -63 26 -115 46 -52 20 -108 43 -125
50 -16 7 -91 36 -165 64 -135 52 -153 59 -200 79 -14 6 -119 47 -235 92 -115
45 -224 88 -242 96 -17 8 -33 14 -36 14 -2 0 -22 8 -43 17 -22 9 -42 18 -46
19 -5 1 -10 3 -13 4 -3 1 -8 3 -12 5 -5 1 -17 5 -28 10 -32 13 -396 157 -547
216 -76 29 -134 56 -130 61 7 7 174 68 202 73 8 2 15 4 15 4 0 2 137 50 155
55 8 3 87 29 175 59 88 31 165 56 171 56 6 1 116 -78 245 -175z m-3137 -78
c76 -76 116 -121 116 -131 0 -2 13 -23 29 -47 38 -57 99 -175 139 -268 35 -84
111 -287 116 -310 2 -8 6 -22 9 -30 3 -8 30 -93 60 -188 30 -95 56 -175 60
-178 6 -6 0 198 -6 231 -3 11 -8 40 -11 65 l-7 45 25 -57 c39 -91 65 -207 81
-363 12 -121 15 -153 20 -290 6 -167 22 -227 70 -280 20 -22 33 -34 29 -26
-10 19 -12 181 -3 181 5 0 6 7 3 15 -7 17 29 142 48 168 12 16 14 8 16 -60 1
-43 3 -85 5 -93 2 -8 7 -30 11 -49 l8 -34 19 24 c10 13 19 30 19 37 0 7 5 10
10 7 6 -3 10 -22 10 -41 0 -19 4 -34 9 -34 13 0 41 29 41 43 0 8 3 8 12 -1 15
-15 38 -83 32 -94 -3 -4 -1 -8 4 -8 4 0 16 25 26 55 9 30 21 55 25 55 4 0 14
-11 21 -25 16 -30 34 -28 38 6 6 51 14 55 31 14 16 -37 19 -38 29 -20 14 28
24 98 24 173 0 55 2 61 13 45 16 -23 45 -107 52 -153 4 -19 6 -77 5 -129 l-1
-94 25 34 c54 72 61 106 68 304 4 107 13 224 21 275 2 14 6 48 9 75 13 108 36
203 62 262 8 17 14 36 14 41 0 6 5 14 10 17 10 6 7 -36 -6 -79 -10 -32 -13
-246 -3 -240 5 3 9 11 9 18 0 7 9 42 21 77 12 35 23 71 24 79 9 40 101 313
140 416 74 189 181 400 228 449 7 7 26 29 42 50 52 67 114 119 202 173 32 19
50 26 46 17 -3 -8 -8 -15 -12 -15 -9 0 -95 -75 -144 -124 -103 -106 -191 -256
-246 -421 -74 -221 -174 -590 -186 -684 -10 -73 -16 -117 -20 -131 -2 -8 -7
-39 -10 -69 -5 -45 -18 -119 -41 -227 -18 -91 -98 -294 -115 -294 -5 0 -9 -6
-9 -12 -1 -20 -80 -74 -135 -93 -64 -21 -126 -28 -255 -28 -169 0 -263 20
-330 71 -47 35 -55 45 -95 127 -59 121 -88 233 -130 515 -21 140 -23 150 -30
185 -4 17 -10 50 -15 75 -8 45 -23 99 -79 290 -17 58 -33 114 -35 125 -3 11
-5 20 -6 20 -1 0 -3 7 -5 15 -11 49 -72 216 -102 275 -69 139 -178 275 -284
356 -70 54 -71 58 -10 27 42 -21 91 -59 145 -112z m650 -286 c23 -12 52 -35
66 -52 24 -31 24 -35 25 -225 0 -106 -3 -193 -6 -193 -4 0 -21 21 -37 48 -81
126 -111 218 -116 356 -3 98 -1 100 68 66z m730 -55 c-1 -88 -10 -152 -29
-205 -20 -58 -70 -148 -104 -189 l-28 -34 3 39 c6 74 6 261 -1 296 -10 55 40
131 105 157 49 19 55 12 54 -64z m-544 -24 c9 -18 7 -208 -3 -217 -2 -2 -16
22 -32 53 -33 67 -46 160 -24 174 23 14 48 10 59 -10z m359 -3 c16 -43 -19
-169 -55 -199 -11 -9 -14 -5 -15 22 0 19 -2 59 -5 89 -5 70 10 110 43 110 15
0 26 -8 32 -22z m-253 -6 c8 -5 10 -41 8 -107 -2 -55 -3 -101 -3 -103 -1 -3
-45 48 -71 81 -7 10 -15 36 -16 58 -2 31 3 43 23 59 27 21 41 24 59 12z m139
-17 c42 -41 31 -88 -39 -170 l-25 -30 -1 75 c-1 41 -4 88 -6 104 -8 49 32 61
71 21z m1470 -217 c6 -5 57 -44 115 -87 156 -118 224 -188 378 -386 27 -35
121 -195 114 -195 -8 0 -112 51 -727 356 -154 76 -282 139 -285 139 -6 2 -207
102 -260 130 l-35 19 190 38 c105 21 206 40 225 43 19 3 62 11 95 18 l60 13
60 -40 c33 -22 65 -44 70 -48z m-2974 72 c30 -6 70 -13 89 -16 19 -3 43 -7 52
-10 10 -3 28 -7 40 -9 132 -25 332 -66 335 -69 2 -2 -51 -31 -119 -64 -68 -33
-265 -130 -438 -215 -578 -284 -752 -368 -756 -365 -3 4 211 291 276 369 90
110 202 211 314 287 39 26 77 53 84 60 7 6 19 12 26 12 8 0 19 7 26 15 7 8 14
15 15 15 1 0 27 -5 56 -10z m554 -434 c44 -3 86 -5 93 -6 15 0 5 -10 -133
-135 -112 -101 -170 -154 -225 -205 -21 -19 -69 -63 -108 -98 -38 -35 -87 -80
-109 -100 -22 -20 -75 -68 -118 -107 -43 -38 -91 -83 -106 -98 -16 -16 -29
-24 -29 -19 0 6 21 64 46 129 128 333 151 394 152 403 1 3 7 20 15 39 13 31
33 44 186 121 147 74 178 86 214 84 23 -2 78 -6 122 -8z m2052 -77 c175 -89
169 -83 204 -176 5 -13 13 -33 18 -45 9 -22 87 -229 152 -402 33 -88 36 -88
-46 -11 -40 37 -190 173 -219 198 -12 10 -41 37 -66 60 -41 38 -206 190 -320
293 -25 23 -72 66 -105 97 l-60 56 35 2 c95 4 142 7 145 11 2 2 25 3 50 2 36
-2 84 -21 212 -85z m-1028 19 c-11 -56 -43 -146 -58 -161 -6 -6 -11 -16 -11
-21 0 -6 -23 -47 -51 -91 l-51 -79 -20 24 c-10 14 -26 34 -35 44 -32 40 -92
163 -107 222 -21 81 -20 98 4 49 19 -41 72 -105 87 -105 5 0 23 -13 40 -28 29
-28 31 -28 44 -10 7 10 20 20 29 23 39 12 96 83 120 148 14 40 19 33 9 -15z
m201 -1002 c-19 -85 -94 -158 -185 -181 -16 -5 -37 -10 -45 -12 -8 -3 -67 -6
-131 -7 -232 -4 -349 52 -383 184 -14 54 -5 66 18 23 8 -16 29 -42 48 -59 72
-68 155 -92 308 -88 167 3 283 52 342 145 27 44 39 42 28 -5z"/>
<path d="M3076 5699 c-24 -58 -29 -115 -11 -148 20 -40 43 -61 150 -136 116
-81 188 -153 225 -228 47 -94 38 -159 -29 -204 -49 -33 -74 -29 -33 5 49 41
39 77 -25 88 -51 8 -78 15 -83 23 -3 4 -61 38 -130 76 -69 38 -126 72 -128 77
-2 4 -10 8 -18 8 -7 0 -37 15 -66 33 -29 18 -83 48 -120 66 -74 37 -136 43
-218 21 -42 -11 -116 -59 -133 -86 -4 -7 -13 -19 -20 -26 -50 -51 -64 -160
-28 -220 13 -21 26 -38 31 -38 4 0 4 17 1 38 -4 20 -4 51 0 67 5 27 7 28 14
10 43 -110 77 -142 266 -238 187 -96 191 -97 324 -99 l90 -1 -48 -16 c-49 -17
-132 -20 -197 -7 -91 17 -248 84 -327 138 -64 43 -52 16 25 -60 157 -155 340
-194 563 -121 94 31 111 42 186 120 78 81 129 112 193 115 25 1 48 3 53 3 4 1
7 16 7 34 0 52 11 60 88 62 38 2 74 0 79 -4 17 -11 31 -45 27 -68 -2 -13 -1
-23 4 -24 4 0 28 -1 54 -3 66 -4 115 -34 198 -120 61 -63 84 -80 139 -100 112
-41 143 -47 257 -47 140 0 261 55 364 168 27 30 50 59 50 63 0 5 -20 -4 -44
-20 -40 -28 -154 -83 -221 -108 -97 -37 -226 -47 -299 -22 -42 14 -59 32 -19
21 31 -8 119 -7 173 3 40 7 260 112 335 159 81 51 135 116 135 162 0 18 19 21
21 3 5 -49 3 -85 -6 -97 -8 -11 -6 -13 5 -9 8 2 25 22 37 43 40 72 11 177 -72
258 -56 55 -121 79 -206 78 -67 -1 -95 -12 -304 -131 -71 -40 -150 -84 -175
-98 -25 -13 -65 -37 -90 -52 -25 -16 -64 -31 -87 -33 -78 -7 -93 -40 -41 -88
35 -31 25 -38 -22 -14 -99 51 -84 187 34 313 23 24 77 70 121 103 144 105 155
114 175 146 16 24 20 43 16 80 -2 26 -5 50 -6 53 -1 3 -2 7 -2 10 0 3 -9 17
-20 30 -16 20 -19 21 -13 5 4 -11 10 -50 12 -86 l5 -66 -47 -37 c-26 -20 -52
-36 -56 -36 -9 0 -109 -62 -142 -88 -38 -31 -134 -129 -162 -167 -29 -37 -29
-37 -38 -13 -19 52 -49 252 -50 341 0 15 -4 27 -7 27 -10 0 -14 -104 -13 -302
2 -159 1 -168 -18 -169 -10 0 -44 0 -74 0 -30 0 -63 0 -73 0 -17 1 -18 14 -17
174 1 199 -4 297 -14 297 -4 0 -8 -28 -9 -62 -2 -35 -5 -76 -7 -93 -2 -16 -7
-55 -10 -85 -4 -30 -9 -58 -12 -63 -3 -5 -7 -23 -10 -40 -7 -51 -16 -50 -56 2
-69 90 -195 192 -307 249 -61 32 -83 59 -86 105 -1 25 1 62 6 83 11 50 4 56
-14 13z m-152 -514 c157 -74 162 -80 130 -135 -47 -79 -156 -82 -223 -5 -24
28 -52 85 -58 119 -7 42 -9 96 -2 94 3 -2 72 -34 153 -73z m1700 33 c-5 -78
-20 -120 -59 -166 -60 -71 -142 -83 -200 -29 -20 18 -37 45 -40 62 -5 29 -3
31 67 64 40 18 107 50 148 72 41 21 78 38 81 38 3 1 5 -18 3 -41z"/>
<path d="M3121 5303 c41 -31 76 -59 79 -63 10 -13 115 -85 145 -100 17 -8 34
-16 38 -18 5 -3 4 4 -1 15 -17 31 -101 110 -156 147 -47 31 -147 76 -170 76
-4 0 25 -25 65 -57z"/>
<path d="M4300 5353 c-43 -16 -108 -48 -144 -71 -47 -30 -156 -138 -156 -153
0 -6 26 4 58 21 51 29 91 59 202 150 19 16 44 36 55 44 20 15 13 19 -15 9z"/>
<path d="M1874 4929 c-1 -78 -5 -134 -12 -141 -6 -6 -41 -12 -79 -13 -84 -4
-212 -14 -238 -19 -11 -2 -47 -7 -80 -11 -32 -3 -62 -8 -65 -10 -3 -1 -27 -6
-55 -9 -27 -4 -90 -16 -140 -27 -49 -11 -99 -22 -110 -25 -11 -2 -31 -6 -45
-10 -14 -3 -30 -6 -37 -6 -7 -1 -10 -5 -7 -9 2 -4 14 -6 27 -3 12 3 45 6 72 9
28 2 50 4 50 5 0 2 65 6 215 16 69 4 224 8 345 8 134 1 223 5 227 11 9 12 2
132 -11 202 -6 29 -21 77 -33 107 l-24 55 0 -130z"/>
<path d="M5501 5043 c-8 -16 -39 -114 -48 -153 -2 -8 -6 -57 -10 -107 -4 -75
-3 -93 8 -93 8 0 124 -3 259 -5 135 -3 274 -7 310 -9 178 -12 270 -20 355 -32
43 -6 46 2 5 9 -14 3 -43 10 -65 16 -44 11 -220 49 -274 57 -18 3 -43 8 -55
10 -11 2 -43 7 -71 10 -27 3 -61 8 -75 10 -33 6 -191 17 -257 18 -48 1 -54 3
-62 29 -6 15 -9 79 -8 142 1 63 1 115 0 115 -1 0 -7 -8 -12 -17z"/>
<path d="M2025 4993 c4 -10 9 -34 11 -53 2 -19 6 -44 8 -55 3 -11 5 -59 5
-107 1 -113 12 -125 102 -127 35 0 75 -3 89 -6 14 -3 48 -7 75 -10 66 -6 180
-30 288 -61 169 -48 334 -145 395 -234 15 -22 30 -39 33 -40 13 0 -3 75 -22
108 -17 29 -17 32 -1 23 53 -28 119 -150 125 -230 2 -27 16 -45 18 -23 0 4 3
16 6 27 12 50 7 151 -11 184 -43 81 -150 149 -321 204 -91 29 -254 73 -306 82
-19 3 -41 8 -49 10 -8 2 -28 7 -45 10 -16 2 -39 7 -50 9 -11 2 -49 7 -85 12
-36 5 -69 9 -75 10 -5 1 -26 2 -46 3 l-36 1 -23 93 c-23 97 -63 187 -81 187
-7 0 -8 -7 -4 -17z"/>
<path d="M5327 4965 c-30 -53 -42 -89 -58 -172 -11 -61 -13 -63 -43 -64 -47
-2 -100 -7 -106 -9 -3 -1 -8 -2 -12 -1 -4 0 -56 -9 -115 -20 -60 -12 -119 -23
-133 -25 -14 -3 -34 -8 -45 -11 -22 -7 -27 -9 -68 -16 -35 -7 -152 -43 -239
-73 -141 -49 -229 -111 -267 -186 -16 -34 -20 -57 -17 -120 3 -92 20 -122 30
-56 9 60 56 156 96 196 37 36 50 36 26 0 -16 -25 -34 -118 -23 -118 4 0 13 13
21 28 36 71 147 153 281 211 81 34 262 86 340 97 63 9 166 20 279 29 21 2 43
8 49 14 6 6 12 49 13 95 1 47 5 105 8 130 4 25 7 48 7 51 0 2 4 18 9 35 13 44
-5 37 -33 -15z"/>
<path d="M3474 4862 c-26 -7 -60 -28 -82 -50 -41 -41 -87 -112 -72 -112 5 0
12 5 15 10 21 34 178 130 213 130 10 0 22 3 26 8 8 8 14 9 53 11 14 0 23 4 20
8 -13 12 -126 9 -173 -5z"/>
<path d="M3751 4872 c-8 -3 19 -13 60 -23 75 -20 159 -64 210 -110 48 -44 62
-43 34 1 -48 77 -96 116 -151 126 -41 8 -138 11 -153 6z"/>
<path d="M3445 4742 c-11 -2 -55 -33 -98 -68 -47 -38 -95 -68 -120 -75 -39
-10 -152 -7 -219 6 -16 3 -28 1 -28 -5 0 -5 5 -10 11 -10 6 0 24 -9 40 -21 16
-11 29 -18 29 -15 0 3 20 -4 43 -14 24 -11 65 -22 91 -24 51 -6 70 1 177 66
37 22 71 35 100 36 46 3 103 32 113 57 6 17 1 19 -22 6 -9 -5 -38 -11 -64 -14
-67 -8 -64 16 5 48 33 16 45 25 32 26 -57 4 -72 4 -90 1z"/>
<path d="M3860 4741 l-25 -7 29 -8 c38 -9 76 -35 76 -51 0 -14 -45 -12 -107 5
-29 7 -31 7 -21 -10 18 -28 61 -49 108 -52 28 -1 63 -14 99 -36 117 -71 135
-76 222 -59 38 8 179 72 179 82 0 4 -15 3 -32 0 -18 -3 -72 -8 -120 -10 -105
-5 -146 9 -220 75 -29 26 -62 51 -73 57 -29 15 -86 22 -115 14z"/>
<path d="M3286 4293 c-22 -37 -54 -94 -72 -125 l-32 -57 75 -73 c96 -93 88
-86 158 -138 113 -85 203 -120 296 -115 135 6 235 64 417 242 l84 81 -73 126
c-41 69 -76 126 -79 126 -3 -1 -18 -21 -34 -46 -51 -81 -24 -77 -434 -71 -194
2 -172 -6 -242 86 l-25 33 -39 -69z"/>
<path d="M1720 4020 c-14 -12 -133 -99 -265 -195 -132 -96 -262 -190 -290
-210 -27 -20 -84 -61 -125 -91 -41 -30 -86 -63 -100 -74 -14 -11 -44 -33 -67
-48 -24 -15 -43 -31 -43 -36 0 -5 8 -2 18 6 9 8 62 41 117 74 55 32 102 61
105 65 3 3 28 19 55 34 28 16 64 39 81 52 17 13 34 23 38 23 4 0 12 5 19 11 7
6 29 20 50 32 20 12 110 67 199 122 153 95 208 123 208 106 0 -19 -49 -57
-260 -201 -263 -179 -235 -159 -228 -165 3 -3 23 3 44 14 157 81 662 321 675
321 21 0 7 -26 -24 -44 -17 -10 -45 -26 -62 -36 -114 -66 -246 -150 -226 -145
13 4 29 8 35 9 6 1 16 4 21 8 6 3 82 31 170 61 445 153 425 143 335 171 -25 8
-89 31 -142 50 -219 80 -292 106 -302 106 -6 0 -22 -9 -36 -20z"/>
<path d="M5495 4005 c-49 -19 -90 -34 -90 -34 0 1 -29 -9 -165 -58 -74 -26
-138 -47 -142 -45 -5 1 -8 -2 -8 -8 0 -5 2 -10 4 -10 2 0 88 -30 192 -66 104
-37 214 -75 244 -84 30 -10 86 -30 124 -44 79 -29 97 -27 39 3 -21 12 -45 26
-53 31 -8 6 -66 40 -128 78 -103 61 -134 91 -90 85 10 -2 82 -34 160 -72 79
-38 229 -110 333 -160 105 -50 198 -96 208 -102 11 -6 21 -8 23 -6 3 3 -53 44
-123 92 -387 263 -383 260 -383 282 0 11 5 11 33 0 34 -15 164 -93 304 -184
46 -29 87 -53 93 -53 5 0 10 -4 10 -10 0 -5 4 -10 9 -10 5 0 95 -54 200 -120
106 -66 196 -120 201 -120 6 0 10 -4 10 -10 0 -5 7 -10 16 -10 17 0 -3 18 -48
45 -9 6 -137 98 -283 205 -146 107 -274 200 -283 205 -9 6 -19 12 -22 16 -3 3
-27 21 -55 40 -27 18 -52 36 -55 39 -17 19 -164 120 -174 120 -6 -1 -51 -16
-101 -35z"/>
<path d="M5004 3241 c-2 -2 -16 -5 -31 -6 -35 -3 -121 -15 -148 -20 -11 -2
-32 -4 -47 -4 -46 -1 -32 -17 45 -49 84 -36 406 -176 457 -199 19 -9 37 -17
40 -17 3 -1 15 -7 28 -14 12 -7 22 -10 22 -8 0 3 15 -2 33 -12 37 -21 67 -33
67 -27 0 6 -90 65 -101 65 -5 0 -9 5 -9 10 0 6 -4 10 -10 10 -7 0 -205 126
-229 147 -3 2 0 8 6 14 7 7 33 -3 83 -32 101 -57 214 -130 218 -140 2 -5 8 -9
13 -9 5 0 47 -28 95 -62 47 -35 92 -67 99 -73 21 -14 29 1 11 22 -82 95 -110
124 -172 172 -102 81 -115 90 -286 195 -69 42 -82 46 -128 44 -28 -2 -53 -5
-56 -7z"/>
<path d="M2125 3163 c-77 -48 -171 -113 -210 -144 -97 -78 -195 -185 -195
-213 0 -3 36 21 81 52 45 31 91 64 104 72 110 74 140 96 143 103 2 4 7 7 12 7
5 0 41 19 82 43 80 48 118 62 118 44 0 -10 -147 -113 -195 -137 -5 -3 -41 -25
-78 -49 -70 -45 -83 -64 -25 -37 116 53 172 76 184 76 8 0 14 5 14 10 0 6 6
10 13 10 7 0 65 23 128 51 63 27 128 56 144 64 17 7 64 27 105 45 78 34 99 46
78 47 -7 0 -31 3 -53 6 -22 3 -65 9 -95 12 -30 4 -66 9 -80 11 -14 3 -50 7
-80 10 -55 5 -55 5 -195 -83z"/>
<path d="M2740 2838 c-32 -8 -63 -21 -130 -51 -15 -7 -72 -39 -128 -72 -112
-66 -97 -47 -187 -240 -62 -134 -63 -136 -14 -90 24 22 50 47 59 55 8 8 44 40
80 70 36 30 67 57 70 60 18 19 200 157 278 209 50 35 92 65 92 66 0 6 -87 1
-120 -7z"/>
<path d="M4550 2846 c0 -3 26 -22 58 -43 110 -72 305 -221 378 -288 76 -70
169 -151 176 -154 5 -2 5 5 -1 15 -16 27 -107 226 -115 249 -6 20 -66 65 -86
65 -5 0 -10 4 -10 8 0 4 -19 18 -42 30 -24 12 -68 36 -98 53 -62 34 -178 69
-227 69 -18 0 -33 -2 -33 -4z"/>
<path d="M1431 5988 c-77 -104 -140 -201 -194 -299 l-37 -66 61 13 c33 7 66
14 72 17 7 2 39 48 72 101 32 53 63 96 67 96 4 0 8 6 8 14 0 8 5 16 11 18 10
3 24 198 14 198 -3 0 -36 -42 -74 -92z"/>
<path d="M5895 5959 c4 -80 8 -97 35 -138 16 -25 44 -72 62 -103 33 -57 43
-64 113 -74 11 -2 30 -5 42 -8 22 -5 22 -3 -10 57 -18 34 -51 88 -73 121 -21
32 -43 66 -49 74 -23 37 -116 162 -120 162 -2 0 -2 -41 0 -91z"/>
<path d="M997 5135 c-9 -31 -26 -99 -28 -110 -1 -5 -5 -20 -10 -33 -5 -12 -11
-33 -13 -45 -2 -12 -7 -34 -11 -49 -4 -16 -5 -28 -2 -28 3 0 32 11 64 25 58
25 59 26 72 82 7 30 15 61 17 67 2 7 -15 34 -39 61 -39 43 -45 47 -50 30z"/>
<path d="M6334 5083 l-41 -46 13 -50 c7 -27 14 -51 16 -53 2 -2 30 -15 61 -29
69 -30 68 -32 32 104 -35 130 -34 129 -81 74z"/>
<path d="M879 4173 c-4 -28 5 -156 16 -228 3 -16 7 -48 11 -70 3 -22 14 -83
25 -135 10 -52 19 -98 19 -103 0 -12 53 19 78 45 22 24 22 26 8 94 -14 66 -17
86 -32 199 -9 68 -12 95 -13 131 -1 28 -7 33 -48 50 -27 11 -51 21 -55 22 -5
2 -8 0 -9 -5z"/>
<path d="M6445 4149 c-22 -10 -43 -20 -47 -21 -8 -3 -13 -34 -23 -123 -9 -87
-24 -183 -36 -239 -11 -46 -10 -50 12 -68 43 -34 70 -51 74 -46 8 7 38 160 51
257 2 19 6 46 9 60 9 61 15 201 8 200 -4 0 -26 -9 -48 -20z"/>
<path d="M1338 2914 c-2 -1 -23 -4 -46 -5 -23 -2 -42 -5 -42 -6 0 -10 36 -72
76 -130 24 -35 44 -67 44 -69 0 -3 6 -12 14 -20 8 -7 16 -19 19 -26 5 -14 76
59 77 79 0 6 -7 18 -15 27 -8 8 -15 17 -15 20 0 4 -16 29 -35 56 -19 27 -35
54 -35 59 0 9 -36 22 -42 15z"/>
<path d="M5960 2838 c-27 -44 -50 -82 -50 -86 0 -4 15 -26 33 -48 l33 -42 24
37 c14 20 27 38 30 41 11 10 101 162 98 165 -2 2 -29 5 -60 8 l-57 4 -51 -79z"/>
<path d="M1100 2455 c78 -186 367 -522 655 -760 27 -22 62 -52 78 -66 l28 -26
-58 -11 c-32 -6 -85 -14 -118 -17 -33 -4 -71 -8 -85 -11 -14 -2 -54 -6 -90 -9
-36 -3 -85 -8 -110 -10 -408 -37 -1151 -36 -1213 2 -5 3 -7 2 -4 -4 6 -9 94
-38 145 -48 9 -1 35 -8 57 -13 36 -9 103 -21 220 -37 189 -27 771 -26 1345 1
58 2 175 6 260 8 85 2 157 5 160 5 3 1 -8 8 -25 17 -130 68 -172 92 -257 147
-82 52 -341 238 -358 257 -3 3 -30 25 -60 50 -30 25 -60 49 -66 55 -6 5 -38
33 -71 62 -166 144 -318 296 -432 433 l-21 25 20 -50z"/>
<path d="M6244 2443 c-84 -105 -339 -349 -514 -493 -41 -34 -84 -69 -95 -78
-47 -40 -216 -163 -285 -208 -41 -27 -77 -51 -80 -54 -7 -7 -38 -25 -150 -87
-52 -29 -101 -56 -108 -60 -8 -4 35 -8 95 -9 117 -1 397 -10 643 -21 326 -15
882 -8 1015 11 17 3 48 7 70 10 34 4 179 32 210 40 68 17 136 40 140 46 3 4
-12 4 -33 0 -42 -10 -214 -23 -252 -20 -14 1 -32 1 -40 0 -8 0 -100 -1 -205
-2 -290 -2 -697 21 -878 48 -20 3 -59 8 -85 10 -26 2 -63 6 -82 9 -19 4 -46 8
-59 10 -34 6 -38 14 -13 30 11 9 27 21 34 28 8 6 47 41 88 76 80 69 307 294
379 376 67 76 145 182 193 265 38 65 63 120 53 120 -1 0 -20 -21 -41 -47z"/>
<path d="M5623 2416 c-55 -57 -203 -193 -225 -207 -9 -6 16 -84 33 -103 4 -5
36 15 71 45 101 85 300 287 294 297 -3 5 -25 13 -48 17 -24 4 -48 9 -54 10 -7
2 -39 -25 -71 -59z"/>
<path d="M1625 2456 c-22 -6 -39 -15 -39 -20 2 -15 187 -197 274 -270 47 -39
88 -75 92 -81 7 -10 48 70 47 95 0 8 -22 32 -49 54 -27 21 -95 83 -151 137
-56 55 -109 99 -118 98 -9 0 -34 -6 -56 -13z"/>
<path d="M2165 2001 l-59 -27 79 -49 c110 -69 100 -63 231 -131 184 -94 449
-192 619 -228 17 -4 50 -11 75 -17 25 -5 59 -12 75 -15 31 -6 39 -7 119 -19
l50 -7 -47 52 c-26 29 -47 55 -47 59 0 10 -57 27 -135 42 -253 47 -572 171
-814 317 -42 24 -78 46 -81 47 -3 2 -32 -9 -65 -24z"/>
<path d="M5085 1989 c-109 -71 -479 -242 -547 -253 -7 -1 -17 -4 -23 -8 -12
-7 -230 -63 -306 -78 -44 -8 -58 -16 -72 -39 -9 -15 -33 -45 -54 -64 -27 -27
-32 -36 -18 -33 11 2 43 7 70 10 41 6 177 34 245 51 121 31 321 98 410 137
171 76 480 249 480 268 0 9 -94 50 -112 49 -7 0 -40 -18 -73 -40z"/>
<path d="M235 1160 c11 -4 23 -6 26 -4 4 2 13 -3 20 -12 16 -20 20 -134 5
-135 -15 -1 -82 -1 -138 0 -38 1 -48 5 -48 18 0 9 -3 13 -6 10 -9 -9 -53 -117
-47 -117 2 0 14 12 26 26 21 24 28 26 112 26 50 0 95 -1 100 -1 7 -1 11 -82
10 -239 0 -259 -3 -271 -54 -273 -19 0 -22 -2 -9 -7 18 -8 203 -4 195 4 -2 3
-15 7 -27 9 -12 2 -25 7 -29 11 -3 3 -7 116 -8 250 -1 181 1 244 10 245 40 4
159 0 172 -5 9 -3 13 -10 10 -16 -3 -5 -2 -10 2 -10 9 0 35 54 48 100 l8 25
-26 -27 c-27 -29 -31 -30 -141 -29 -67 1 -102 13 -90 33 4 5 6 27 6 47 -1 48
8 61 49 71 23 5 -5 7 -81 8 -63 0 -106 -4 -95 -8z"/>
<path d="M3438 1137 l-28 -28 30 -29 c22 -21 32 -26 37 -16 5 7 18 19 30 27
l22 15 -32 30 -32 29 -27 -28z"/>
<path d="M3888 1158 c18 -5 35 -14 37 -21 9 -22 12 -105 5 -117 -4 -7 -37 -11
-81 -12 -107 0 -109 0 -109 19 0 27 -16 4 -39 -54 -23 -59 -20 -65 12 -27 21
24 28 26 120 27 80 2 97 -1 98 -13 4 -71 0 -470 -5 -478 -3 -6 -21 -14 -39
-19 -26 -6 -15 -9 58 -13 106 -6 147 -1 98 12 -23 6 -35 16 -39 34 -4 14 -7
126 -8 250 -1 207 0 224 17 225 22 1 120 1 151 0 15 -1 26 -8 29 -18 3 -13 10
-4 24 27 12 25 24 56 27 70 7 25 7 25 -11 -3 -10 -15 -25 -30 -34 -32 -24 -8
-187 -10 -194 -3 -8 8 -8 118 0 126 3 4 21 12 38 18 27 10 16 12 -78 12 -83
-1 -102 -3 -77 -10z"/>
<path d="M4660 1023 c-56 -7 -133 -32 -165 -55 -48 -34 -90 -78 -113 -117 -23
-40 -27 -57 -27 -126 0 -57 5 -90 18 -115 53 -105 161 -165 307 -171 85 -4
206 27 215 54 10 31 13 107 4 107 -5 0 -9 -7 -9 -15 0 -30 -33 -83 -64 -101
-22 -13 -54 -19 -113 -21 -71 -2 -88 1 -130 23 -106 56 -154 138 -149 255 5
108 64 201 153 241 47 21 87 24 153 13 65 -10 102 -36 129 -88 19 -35 27 -21
23 37 -4 41 -7 46 -28 46 -12 0 -33 4 -46 10 -29 12 -125 26 -158 23z"/>
<path d="M7028 1014 c-56 -30 -44 -118 17 -130 40 -7 73 9 86 43 23 62 -44
119 -103 87z m83 -34 c24 -32 15 -65 -20 -80 -30 -12 -80 3 -82 24 0 6 -2 19
-4 29 -5 27 31 59 62 55 14 -2 34 -14 44 -28z"/>
<path d="M7033 951 c0 -22 4 -38 9 -35 5 3 6 10 3 15 -11 16 17 10 30 -8 10
-14 12 -10 11 23 -1 34 -4 39 -27 42 -25 3 -27 1 -26 -37z m38 14 c1 -17 -18
-17 -25 0 -4 11 -1 15 10 13 8 -2 15 -7 15 -13z"/>
<path d="M2310 1008 c0 -5 6 -8 13 -8 7 0 21 -6 31 -13 14 -10 18 -32 21 -115
5 -124 27 -217 68 -295 31 -59 117 -147 144 -147 26 0 119 105 147 167 l28 61
34 -68 c34 -68 85 -126 130 -151 22 -11 28 -9 71 27 25 22 51 49 57 59 6 11
14 22 18 25 16 12 56 123 63 175 2 11 6 34 9 51 3 17 7 67 8 112 1 45 5 87 8
92 4 6 20 13 36 16 51 9 38 13 -65 16 -56 2 -101 0 -101 -4 0 -5 6 -8 14 -8 8
0 22 -8 31 -17 25 -25 14 -221 -20 -354 -24 -93 -90 -189 -118 -173 -30 17
-60 52 -76 89 -41 92 -48 123 -57 226 -16 190 -9 224 44 231 15 3 -19 6 -76 9
-56 2 -102 1 -102 -3 0 -5 7 -8 16 -8 8 0 22 -7 31 -15 23 -24 12 -235 -19
-355 -15 -61 -43 -115 -78 -151 -33 -36 -51 -31 -93 24 -54 71 -86 215 -87
395 -1 77 9 102 41 102 10 0 20 3 22 8 3 4 -39 7 -94 7 -54 0 -99 -3 -99 -7z"/>
<path d="M5248 1014 c-3 -3 -50 -5 -104 -6 -77 0 -92 -2 -67 -9 18 -5 36 -15
40 -22 10 -17 11 -468 1 -489 -5 -10 -23 -22 -41 -27 -25 -7 -7 -9 78 -9 90 0
105 2 80 10 -16 6 -33 16 -37 22 -4 6 -8 61 -8 122 l0 110 173 0 172 -1 3
-111 c3 -121 -5 -144 -51 -144 -17 0 -19 -2 -7 -9 8 -6 18 -7 22 -5 5 3 48 6
96 6 53 0 79 3 67 8 -11 4 -23 6 -26 4 -4 -2 -13 3 -20 12 -9 11 -13 75 -13
251 -1 255 1 268 52 276 15 2 -22 4 -83 4 -88 1 -104 -1 -80 -10 17 -5 33 -15
37 -21 4 -6 8 -47 8 -92 l0 -80 -176 -1 -175 0 3 91 3 91 33 10 c17 5 32 13
32 17 0 9 -4 10 -12 2z m287 -254 c0 -13 -27 -15 -169 -15 -120 0 -171 4 -173
12 -6 16 12 18 186 18 130 -1 156 -3 156 -15z"/>
<path d="M737 999 c18 -5 35 -15 40 -22 10 -17 11 -468 1 -489 -5 -10 -23 -22
-41 -27 -24 -7 -5 -9 78 -9 90 0 104 2 77 11 -40 12 -44 25 -40 152 l3 100
170 0 170 0 2 -64 c1 -35 4 -70 7 -77 3 -8 2 -14 -2 -14 -4 0 -7 -19 -7 -42 0
-38 -3 -42 -35 -54 -32 -11 -26 -12 75 -12 86 0 103 2 77 9 -18 6 -36 19 -40
30 -10 26 -9 471 1 486 5 7 22 17 40 22 24 7 6 9 -77 9 -103 1 -127 -3 -76
-13 35 -7 40 -22 38 -111 l-1 -80 -174 -1 -173 0 0 81 c0 90 6 104 40 111 50
10 27 14 -76 13 -83 0 -101 -2 -77 -9z m458 -239 c0 -13 -27 -15 -168 -15
-157 0 -185 3 -174 23 3 4 81 7 174 7 141 0 168 -3 168 -15z"/>
<path d="M1517 999 c18 -5 35 -15 40 -22 11 -17 13 -446 2 -482 -7 -23 -16
-31 -36 -33 -14 -1 -29 -4 -31 -7 -3 -3 74 -5 172 -4 97 0 180 -2 184 -5 12
-7 35 10 38 28 1 8 9 30 18 47 20 41 14 48 -12 14 -32 -41 -63 -51 -148 -49
-44 1 -87 2 -96 3 -15 1 -16 16 -15 128 l2 128 102 0 c98 0 131 8 105 24 -6 4
-57 6 -112 5 l-101 -1 2 103 1 104 87 -1 c124 -1 139 -5 156 -42 l13 -32 1 35
c1 65 2 65 -211 66 -128 1 -182 -1 -161 -7z"/>
<path d="M3387 999 c18 -5 35 -15 39 -21 4 -7 8 -118 8 -246 1 -247 -3 -272
-45 -272 -10 0 -19 -3 -19 -7 0 -5 46 -6 102 -4 83 3 97 5 71 13 -21 5 -35 16
-38 31 -3 12 -4 128 -3 257 l3 235 35 12 c31 10 22 11 -75 11 -83 0 -102 -2
-78 -9z"/>
<path d="M5858 998 c20 -5 36 -18 41 -31 6 -17 8 -456 2 -489 0 -4 -17 -10
-36 -14 -19 -3 -32 -10 -29 -15 3 -5 10 -7 15 -4 11 7 326 8 337 1 14 -8 29 8
50 57 24 54 17 60 -21 17 -15 -16 -35 -31 -45 -31 -92 -7 -184 -4 -192 7 -7 7
-10 60 -8 130 l3 119 105 0 c85 0 105 3 108 15 2 13 -14 15 -105 15 l-108 0 0
100 0 100 110 0 c105 0 110 -1 121 -23 21 -42 35 -49 24 -14 -10 37 -10 37
-10 56 0 11 -38 13 -197 13 -137 1 -188 -2 -165 -9z"/>
<path d="M6410 1000 c8 -5 18 -6 23 -3 4 3 16 -2 26 -11 16 -14 17 -39 16
-255 0 -251 -4 -271 -46 -271 -11 0 -19 -3 -19 -7 0 -5 39 -7 87 -6 119 3 123
3 86 14 -40 12 -45 27 -41 144 l3 90 43 0 c47 0 72 -17 193 -129 193 -179 290
-236 412 -242 60 -3 105 6 129 26 4 3 -29 6 -75 5 -73 0 -89 4 -144 32 -60 31
-174 116 -238 178 -17 17 -59 56 -94 87 l-63 57 34 14 c101 43 139 165 70 229
-55 51 -80 56 -254 57 -101 0 -157 -3 -148 -9z m299 -32 c97 -49 103 -170 11
-229 -31 -20 -50 -25 -106 -24 l-69 0 -2 125 c-1 77 3 130 9 138 16 19 112 12
157 -10z"/>
</g>
</svg>
